<svg width="212" height="212" viewBox="0 0 212 212" fill="none" xmlns="http://www.w3.org/2000/svg">
<path d="M130.534 66.8493L13.3584 66.8492V84.7877L112.595 84.7877L130.534 66.8493Z" fill="white"/>
<path d="M50.9174 151.465L26.3899 175.993C8.04873 155.172 -0.731996 128.875 0.0476896 102.811H34.653C34.6527 102.818 34.6524 102.826 34.652 102.834L99.5489 102.834L81.6104 120.772L36.1183 120.772C38.4336 131.776 43.3667 142.339 50.9174 151.465Z" fill="white"/>
<path d="M37.7829 84.8108C39.7262 78.5356 42.5545 72.4754 46.2677 66.8262H7.47514C5.15038 72.6814 3.36787 78.702 2.1276 84.8108H37.7829Z" fill="white"/>
<path d="M156.5 55.5C131.047 30.0473 91.1625 27.8227 63.187 48.8262L16.7145 48.8262C20.7582 42.5247 25.5356 36.5578 31.0467 31.0467C72.4423 -10.3489 139.558 -10.3489 180.953 31.0467C222.349 72.4423 222.349 139.558 180.953 180.953C141.04 220.866 77.2168 222.296 35.5911 185.242L60.1069 160.726C88.1663 184.311 130.098 182.902 156.5 156.5C184.39 128.61 184.39 83.3904 156.5 55.5Z" fill="white"/>
</svg>
