<svg width="354" height="525" viewBox="0 0 354 525" fill="none" xmlns="http://www.w3.org/2000/svg">
<g clip-path="url(#clip0_38_6251)">
<path d="M286 522.503C284.35 521.641 280.3 519.246 277 517.181C273.7 515.116 264.7 509.7 257 505.144C226.038 486.827 188.031 459.95 165.5 440.439C151.172 428.032 130.957 407.522 121.305 395.6C97.857 366.639 82.7776 334.45 78.464 304.151C74.9116 279.199 79.6012 247.601 91.5244 216.151C100.254 193.123 100.656 191.579 101.222 178.901C101.66 169.093 101.382 165.539 99.5442 157.401L97.3419 147.651L88.6039 139.151C83.798 134.476 75.621 127.608 70.4329 123.89C53.8815 112.026 27.7577 100.561 6.49998 95.831L0 94.3847L5.05959 94.2679C17.094 93.9897 37.7406 101.398 69.1137 117.252C91.3231 128.474 90.6166 128.246 111.963 131.119C122.887 132.589 132.089 136.965 138.491 143.735C141.246 146.648 143.507 149.396 143.515 149.841C143.523 150.287 143.932 151.286 144.424 152.062C145.483 153.735 150.749 150.637 180.204 131.008C202.211 116.343 222.653 101.666 242.318 86.4111C273.832 61.9644 306.506 32.275 326.866 9.58658C331.34 4.60112 335.418 0.326092 335.928 0.0865456C336.926 -0.381662 337.245 0.569112 341.042 15.3092C351.326 55.2344 341.153 94.2533 312.574 124.491C299.983 137.813 279.065 151.855 216.942 188.684C179.686 210.771 171.38 216.121 156.523 227.6C155.135 228.672 148.137 235.422 140.971 242.6C129.235 254.355 127.433 256.644 122.822 265.651C112.962 284.912 108.41 302.158 108.6 319.532C108.741 332.422 109.952 335.827 110.777 325.651C112.11 309.209 118.275 292.599 128.675 277.427C135.409 267.603 151.511 251.427 162.306 243.641C172.375 236.379 199.407 220.732 249.5 193.169C293.527 168.943 305.914 161.27 323.208 147.508C332.039 140.48 344.579 127.122 346.774 122.401C348.316 119.086 349.169 119.611 350.84 124.901C353.21 132.404 353.632 138.057 352.455 146.522C349.621 166.896 336.152 193.376 320.729 208.892C312.909 216.761 312.556 217.044 300.623 225.068C275.853 241.724 244.718 257.167 204.5 272.746C184 280.687 167.618 290.882 154.904 303.61C134.721 323.816 129.076 345.165 137.369 369.92C145.17 393.204 160.911 415.601 189.956 444.747C210.781 465.642 227.622 480.15 251.5 497.762C260.122 504.122 284.086 520.233 289 522.974C292.089 524.698 289.389 524.274 286 522.503Z" fill="white"/>
</g>
<defs>
<clipPath id="clip0_38_6251">
<rect width="353.088" height="524.07" fill="white"/>
</clipPath>
</defs>
</svg>
