<svg width="635" height="545" viewBox="0 0 635 545" fill="none" xmlns="http://www.w3.org/2000/svg">
<g clip-path="url(#clip0_38_6247)">
<path d="M0.250171 543.58C-0.672359 542.468 0.808437 536.223 7.18507 514.33C17.4854 478.966 23.1319 465.51 35.4412 446.993C62.0724 406.932 104.013 378.316 150.928 368.197C158.658 366.529 160.178 366.435 160.178 367.624C160.178 368.406 156.774 380.847 152.612 395.27C131.997 466.719 133.479 462.4 126.321 471.926C119.948 480.408 113.947 484.612 86.9403 499.518C73.0462 507.186 48.8672 520.555 33.2091 529.227C17.551 537.898 3.99365 544.993 3.08154 544.993C2.16945 544.993 0.895333 544.357 0.250171 543.58ZM40.3783 406.793C39.7183 406.133 39.1783 405.096 39.1783 404.488C39.1783 402 52.3017 357.815 55.6182 349.137C76.571 294.312 124.474 251.743 181.87 236.944C199.79 232.324 214.992 230.676 233.678 231.33C259.157 232.22 258.823 232.147 328.678 252.293C354.528 259.748 392.328 270.634 412.678 276.483C456.569 289.1 463.383 291.133 462.981 291.491C460.886 293.361 391.916 330.669 384.125 334.147C371.413 339.822 356.689 344.309 341.178 347.235C331.802 349.004 325.892 349.412 309.178 349.444C286 349.489 282.707 349.043 253.678 341.938C226.976 335.402 214.009 333.69 191.178 333.684C153.862 333.677 122.917 341.54 95.7847 357.929C79.2571 367.912 61.6802 384.086 49.7986 400.243C44.0896 408.007 42.6163 409.031 40.3783 406.793ZM78.7497 273.422C77.8854 272.558 77.1783 271.682 77.1783 271.477C77.1783 271.004 131.967 80.6665 136.758 64.4934C142.607 44.7505 151.404 30.625 164.661 19.6902C173.829 12.1283 182.395 7.36522 193.178 3.83362C201.356 1.1555 204.558 0.656471 216.178 0.249049C238.457 -0.532051 234.992 -1.75416 316.968 35.7964C337.002 44.9731 336.802 45.1939 307.166 46.6375C281.659 47.8799 275.695 49.0637 265.678 54.8718C251.178 63.2794 240.897 78.2079 238.329 94.5846L237.453 100.174L240.066 99.5391C245.666 98.1777 278.761 97.75 287.682 98.9236C305.325 101.245 300.889 100.03 474.178 149.996C489.303 154.357 531.603 166.538 568.178 177.065C604.753 187.591 634.781 196.296 634.906 196.409C635.031 196.522 629.18 199.597 621.905 203.242C548.713 239.913 466.375 250.726 385.178 234.332C378.303 232.943 356.253 227.063 336.178 221.264C277.373 204.277 271.305 202.923 244.648 200.832C226.019 199.372 205.306 200.676 186.566 204.488C147.276 212.482 114.984 232.631 90.0005 264.743C85.6145 270.381 81.6424 274.993 81.1736 274.993C80.7047 274.993 79.614 274.286 78.7497 273.422Z" fill="white"/>
</g>
<defs>
<clipPath id="clip0_38_6247">
<rect width="634.907" height="544.993" fill="white"/>
</clipPath>
</defs>
</svg>
